<svg xmlns="http://www.w3.org/2000/svg" width="413.063" height="285.594">
   <path d="M335.875 518.625c-65.544 0-120.887 44.792-137.031 105.344h28.437c14.843-45.595 57.79-78.344 108.594-78.344 63.556 0 114.813 51.256 114.813 114.813 0 63.556-51.257 114.78-114.813 114.78-49.567 0-91.633-31.166-107.75-75.03h31.625v-27.22h-65.125c6.365 72.31 67.322 129.25 141.25 129.25 78.148 0 141.813-63.632 141.813-141.78 0-78.149-63.665-141.813-141.813-141.813z" style="font-size:medium;font-style:normal;font-variant:normal;font-weight:400;font-stretch:normal;text-indent:0;text-align:start;text-decoration:none;line-height:normal;letter-spacing:normal;word-spacing:normal;text-transform:none;direction:ltr;block-progression:tb;writing-mode:lr-tb;text-anchor:start;baseline-shift:baseline;color:#000;fill:#f8f8ff;fill-opacity:1;stroke:#000;stroke-width:2;stroke-miterlimit:4;stroke-opacity:1;stroke-dasharray:none;marker:none;visibility:visible;display:inline;overflow:visible;enable-background:accumulate;font-family:Sans;-inkscape-font-specification:Sans" transform="translate(-65.625 -517.625)" />
   <path d="M208.438 518.625c65.543 0 120.887 44.792 137.03 105.344h-28.437c-14.843-45.595-57.789-78.344-108.594-78.344-63.556 0-114.812 51.256-114.812 114.813 0 63.556 51.256 114.78 114.813 114.78 49.567 0 91.633-31.166 107.75-75.03h-31.625v-27.22h65.125c-6.366 72.31-67.322 129.25-141.25 129.25-78.149 0-141.813-63.632-141.813-141.78 0-78.149 63.664-141.813 141.813-141.813z" style="font-size:medium;font-style:normal;font-variant:normal;font-weight:400;font-stretch:normal;text-indent:0;text-align:start;text-decoration:none;line-height:normal;letter-spacing:normal;word-spacing:normal;text-transform:none;direction:ltr;block-progression:tb;writing-mode:lr-tb;text-anchor:start;baseline-shift:baseline;color:#000;fill:#f8f8ff;fill-opacity:1;stroke:#000;stroke-width:2;stroke-miterlimit:4;stroke-opacity:1;stroke-dasharray:none;marker:none;visibility:visible;display:inline;overflow:visible;enable-background:accumulate;font-family:Sans;-inkscape-font-specification:Sans" transform="translate(-65.625 -517.625)" />
</svg>